<svg width="41" height="42" viewBox="0 0 41 42" fill="none" xmlns="http://www.w3.org/2000/svg">
<path d="M20.3219 4.20001C11.4721 4.20001 4.29691 11.7222 4.29691 21C4.29691 28.8722 9.46764 35.4592 16.4385 37.282C16.3637 37.0552 16.3157 36.792 16.3157 36.4658V33.5944C15.6653 33.5944 14.5756 33.5944 14.3018 33.5944C13.2055 33.5944 12.2306 33.1002 11.7579 32.1818C11.2331 31.1612 11.1423 29.6002 9.84156 28.6454C9.45562 28.3276 9.74941 27.965 10.1941 28.014C11.0154 28.2576 11.6964 28.8484 12.3374 29.7248C12.9758 30.6026 13.2762 30.8014 14.4688 30.8014C15.047 30.8014 15.9124 30.7664 16.727 30.632C17.165 29.4658 17.9222 28.392 18.8476 27.8852C13.5113 27.3098 10.9646 24.5266 10.9646 20.748C10.9646 19.1212 11.6257 17.5476 12.7488 16.2218C12.3802 14.9058 11.9168 12.222 12.8903 11.2C15.2914 11.2 16.743 12.8324 17.0915 13.2734C18.2881 12.8436 19.6021 12.6 20.9829 12.6C22.3664 12.6 23.6858 12.8436 24.885 13.2762C25.2296 12.838 26.6825 11.2 29.0889 11.2C30.0664 12.2234 29.5977 14.9184 29.2251 16.2316C30.3415 17.5546 30.9986 19.124 30.9986 20.748C30.9986 24.5238 28.4559 27.3056 23.1276 27.8838C24.5939 28.686 25.6636 30.94 25.6636 32.6382V36.4658C25.6636 36.6114 25.6329 36.7164 25.6168 36.841C31.8612 34.5464 36.3469 28.3304 36.3469 21C36.3469 11.7222 29.1717 4.20001 20.3219 4.20001Z" fill="black"/>
</svg>
