<svg width="43" height="42" viewBox="0 0 43 42" fill="none" xmlns="http://www.w3.org/2000/svg">
<path d="M37.1605 32.375C37.1605 34.7918 35.1992 36.75 32.7786 36.75H9.9931C7.57345 36.75 5.61127 34.7918 5.61127 32.375V9.625C5.61127 7.20825 7.57345 5.25 9.9931 5.25H32.7786C35.1992 5.25 37.1605 7.20825 37.1605 9.625V32.375Z" fill="#0288D1"/>
<path d="M10.8695 16.625H15.2513V31.5H10.8695V16.625ZM13.0473 14.875H13.0227C11.7152 14.875 10.8695 13.902 10.8695 12.6866C10.8695 11.445 11.7415 10.5 13.0727 10.5C14.4056 10.5 15.2268 11.445 15.2513 12.6866C15.2513 13.9011 14.4056 14.875 13.0473 14.875ZM31.9023 31.5H27.5205V23.5384C27.5205 21.6151 26.4469 20.3026 24.7231 20.3026C23.4077 20.3026 22.6961 21.1881 22.3508 22.0439C22.2246 22.3501 22.2623 23.1971 22.2623 23.625V31.5H17.8804V16.625H22.2623V18.914C22.8941 17.9375 23.8836 16.625 26.4145 16.625C29.5501 16.625 31.9014 18.5938 31.9014 22.9898L31.9023 31.5Z" fill="white"/>
</svg>
