<svg width="43" height="42" viewBox="0 0 43 42" fill="none" xmlns="http://www.w3.org/2000/svg">
<path d="M38.2778 29.6625C37.9273 31.5 36.4375 32.9 34.5971 33.1625C31.7051 33.6 26.8851 34.125 21.4516 34.125C16.1058 34.125 11.2857 33.6 8.30609 33.1625C6.46572 32.9 4.9759 31.5 4.62535 29.6625C4.2748 27.65 3.92426 24.675 3.92426 21C3.92426 17.325 4.2748 14.35 4.62535 12.3375C4.9759 10.5 6.46572 9.1 8.30609 8.8375C11.1981 8.4 16.0181 7.875 21.4516 7.875C26.8851 7.875 31.6174 8.4 34.5971 8.8375C36.4375 9.1 37.9273 10.5 38.2778 12.3375C38.6284 14.35 39.0666 17.325 39.0666 21C38.9789 24.675 38.6284 27.65 38.2778 29.6625Z" fill="#FF3D00"/>
<path d="M17.9461 27.125V14.875L28.4625 21L17.9461 27.125Z" fill="white"/>
</svg>
